<svg xmlns="http://www.w3.org/2000/svg" xmlns:xlink="http://www.w3.org/1999/xlink" xmlns:lucid="lucid" width="2763.62" height="1522.83"><g transform="translate(0 0)" lucid:page-tab-id="0_0"><path d="M0 0h2763.62v1522.83H0z" fill="#fff"/><path d="M40 328a8 8 0 0 1 8-8h784a8 8 0 0 1 8 8v524a8 8 0 0 1-8 8H48a8 8 0 0 1-8-8z" stroke="#3a414a" fill="#fff"/><use xlink:href="#a" transform="matrix(1,0,0,1,45,325) translate(0 14.4)"/><use xlink:href="#b" transform="matrix(1,0,0,1,45,325) translate(41.95 14.4)"/><path d="M360 348a8 8 0 0 1 8-8h104a8 8 0 0 1 8 8v104a8 8 0 0 1-8 8H368a8 8 0 0 1-8-8z" stroke="#3a414a" fill="#fff"/><use xlink:href="#c" transform="matrix(1,0,0,1,365,345) translate(22.5 58.6)"/><path d="M1840 328a8 8 0 0 1 8-8h864a8 8 0 0 1 8 8v524a8 8 0 0 1-8 8h-864a8 8 0 0 1-8-8z" stroke="#3a414a" fill="#fff"/><use xlink:href="#d" transform="matrix(1,0,0,1,1845,325) translate(0 14.4)"/><use xlink:href="#b" transform="matrix(1,0,0,1,1845,325) translate(76.9 14.4)"/><path d="M1007.67 68a8 8 0 0 1 8-8h664a8 8 0 0 1 8 8v204a8 8 0 0 1-8 8h-664a8 8 0 0 1-8-8z" stroke="#3a414a" fill="#fff"/><use xlink:href="#e" transform="matrix(1,0,0,1,1012.6719320878401,65) translate(0 14.4)"/><use xlink:href="#b" transform="matrix(1,0,0,1,1012.6719320878401,65) translate(42 14.4)"/><path d="M878.82 748a8 8 0 0 1 8-8h906.36a8 8 0 0 1 8 8v724a8 8 0 0 1-8 8H886.82a8 8 0 0 1-8-8z" stroke="#3a414a" fill="#fff"/><use xlink:href="#f" transform="matrix(1,0,0,1,883.8242669049588,745) translate(0 14.4)"/><use xlink:href="#b" transform="matrix(1,0,0,1,883.8242669049588,745) translate(52.8 14.4)"/><path d="M1270 108a8 8 0 0 1 8-8h144a8 8 0 0 1 8 8v144a8 8 0 0 1-8 8h-144a8 8 0 0 1-8-8z" stroke="#3a414a" fill="#fff"/><use xlink:href="#c" transform="matrix(1,0,0,1,1275,105) translate(42.5 78.60000000000001)"/><path d="M1500 108a8 8 0 0 1 8-8h144a8 8 0 0 1 8 8v144a8 8 0 0 1-8 8h-144a8 8 0 0 1-8-8z" stroke="#3a414a" fill="#fff"/><use xlink:href="#g" transform="matrix(1,0,0,1,1505,105.00000000000003) translate(56.55 78.60000000000001)"/><path d="M1040 108a8 8 0 0 1 8-8h144a8 8 0 0 1 8 8v144a8 8 0 0 1-8 8h-144a8 8 0 0 1-8-8z" stroke="#3a414a" fill="#fff"/><use xlink:href="#c" transform="matrix(1,0,0,1,1045,105.00000000000003) translate(42.5 78.60000000000001)"/><path d="M1269 180h-52.12" stroke="#3a414a" fill="none"/><path d="M1269.5 180.5h-.5v-1h.5z" stroke="#3a414a" stroke-width=".05" fill="#3a414a"/><path d="M1202.12 180l14.26-4.63v9.26z" stroke="#3a414a" fill="#3a414a"/><path d="M1431 180h52.12" stroke="#3a414a" fill="none"/><path d="M1431 180.5h-.5v-1h.5z" stroke="#3a414a" stroke-width=".05" fill="#3a414a"/><path d="M1497.88 180l-14.26 4.63v-9.26z" stroke="#3a414a" fill="#3a414a"/><path d="M1287.67 788a8 8 0 0 1 8-8h104a8 8 0 0 1 8 8v104a8 8 0 0 1-8 8h-104a8 8 0 0 1-8-8z" stroke="#3a414a" fill="#fff"/><use xlink:href="#c" transform="matrix(1,0,0,1,1292.67193208784,785) translate(22.5 58.6)"/><path d="M2180 348a8 8 0 0 1 8-8h104a8 8 0 0 1 8 8v104a8 8 0 0 1-8 8h-104a8 8 0 0 1-8-8z" stroke="#3a414a" fill="#fff"/><use xlink:href="#c" transform="matrix(1,0,0,1,2185,345) translate(22.5 58.6)"/><path d="M1350 261v4.5m0 4.5v9m0 4.5v4.5l-.15 1.88-.44 1.83-.7 1.75-.34.53m-4.38 4.38l-.53.33-1.74.7-1.82.45-1.88.15h-5.03m-5.04 0h-10.06m-5.04 0h-10.06m-5.04 0h-10.06m-5.04 0h-10.06m-5.04 0h-10.06m-5.04 0h-10.06m-5.04 0h-10.06m-5.04 0h-10.06m-5.04 0h-10.06m-5.04 0h-10.06m-5.04 0h-10.06m-5.04 0h-10.06m-5.04 0h-10.06m-5.04 0h-10.06m-5.04 0h-10.06m-5.04 0h-10.06m-5.04 0h-10.06m-5.04 0h-10.06m-5.04 0h-10.06m-5.04 0h-10.06m-5.04 0h-10.06m-5.04 0h-10.06m-5.04 0h-10.06m-5.04 0h-10.06m-5.04 0h-10.06m-5.04 0h-10.06m-5.04 0h-10.06m-5.04 0h-10.06m-5.04 0h-10.06m-5.04 0h-10.06m-5.04 0h-10.06m-5.04 0h-10.06m-5.04 0h-10.06m-5.04 0h-10.06m-5.04 0h-10.06m-5.04 0h-10.06m-5.04 0h-10.06m-5.04 0h-10.06m-5.04 0h-10.06m-5.04 0h-10.06m-5.04 0h-10.06m-5.04 0h-10.06m-5.04 0h-10.06m-5.04 0h-10.06m-5.04 0h-10.06m-5.04 0h-10.06m-5.04 0h-10.06m-5.04 0h-10.06m-5.04 0h-10.06m-5.04 0h-10.06m-5.04 0h-10.06m-5.04 0h-10.06m-5.04 0h-10.06m-5.04 0h-10.06m-5.04 0h-10.06m-5.04 0h-10.06m-5.04 0h-10.06m-5.04 0h-10.06m-5.04 0h-10.06m-5.04 0H432l-1.88.15-1.83.44-1.75.7-.53.34m-4.38 4.38l-.33.53-.7 1.74-.45 1.82L420 312v3.7m0 3.7v3.72" stroke="#3a414a" fill="none"/><path d="M1350.5 261h-1v-.5h1z" stroke="#3a414a" stroke-width=".05" fill="#3a414a"/><path d="M420 337.88l-4.63-14.26h9.26z" stroke="#3a414a" fill="#3a414a"/><path d="M1347.67 261v5.07m0 5.07v10.15m0 5.06v10.14m0 5.07v10.15m0 5.07v10.13m0 5.08v10.15m0 5.07v10.15m0 5.07v10.14m0 5.07v10.15m0 5.07V403m0 5.08v10.15m0 5.07v10.14m0 5.08v10.14m0 5.07v10.14m0 5.08v10.14m0 5.06v10.15m0 5.08v10.14m0 5.07v10.14m0 5.07v10.15m0 5.07v10.15m0 5.07v10.14m0 5.08v10.14m0 5.07v10.15m0 5.07v10.13m0 5.07v10.15m0 5.07v10.14m0 5.07v10.15m0 5.07v10.14m0 5.07v10.14m0 5.08v10.15m0 5.07v10.14m0 5.07v10.16m0 5.07v10.14m0 5.07v5.08" stroke="#3a414a" fill="none"/><path d="M1348.17 261h-1v-.5h1z" stroke="#3a414a" stroke-width=".05" fill="#3a414a"/><path d="M1347.67 777.88l-4.63-14.26h9.27z" stroke="#3a414a" fill="#3a414a"/><path d="M1350 261v4.5m0 4.5v9m0 4.5v4.5l.15 1.88.44 1.83.7 1.75.34.53m4.38 4.38l.53.33 1.74.7 1.82.45 1.88.15h4.98m4.97 0h9.96m4.98 0h9.96m4.98 0h9.95m4.98 0h9.95m4.98 0h9.95m4.98 0h9.96m4.98 0h9.95m4.97 0h9.95m4.98 0h9.96m4.97 0h9.96m4.96 0h9.96m4.97 0h9.95m4.98 0h9.95m4.98 0h9.95m5 0h9.94m4.98 0h9.95m4.98 0h9.96m4.98 0h9.96m4.97 0h9.97m4.97 0h9.96m4.98 0h9.95m4.98 0h9.96m4.98 0h9.95m4.97 0h9.95m4.98 0h9.95m4.98 0h9.95m4.98 0h9.95m5 0h9.95m4.97 0h9.96m4.97 0h9.96m4.98 0h9.96m4.98 0h9.95m4.98 0h9.95m4.98 0h9.95m4.98 0h9.96m4.98 0h9.95m4.97 0h9.95m4.98 0h9.96m4.97 0h9.96m4.96 0h9.96m4.97 0h9.95m4.98 0h9.95m4.98 0h9.95m5 0h9.94m4.98 0h9.95m4.98 0h9.95m4.98 0h9.96m4.97 0h9.97m4.97 0h9.96m4.97 0h9.96m4.98 0h9.96m4.98 0h9.95m4.97 0h9.95m4.98 0h9.95m4.98 0h9.95m4.98 0h9.95m5 0h9.95m4.97 0h4.98l1.88.15 1.83.44 1.75.7.53.34m4.38 4.38l.33.53.7 1.74.45 1.82.15 1.88v3.7m0 3.7v3.72" stroke="#3a414a" fill="none"/><path d="M1350.5 261h-1v-.5h1z" stroke="#3a414a" stroke-width=".05" fill="#3a414a"/><path d="M2240 337.88l-4.64-14.26h9.28z" stroke="#3a414a" fill="#3a414a"/><path d="M560 348a8 8 0 0 1 8-8h104a8 8 0 0 1 8 8v104a8 8 0 0 1-8 8H568a8 8 0 0 1-8-8z" stroke="#3a414a" fill="#fff"/><use xlink:href="#g" transform="matrix(1,0,0,1,565,345) translate(36.55 58.6)"/><path d="M481 400h62.12" stroke="#3a414a" fill="none"/><path d="M481 400.5h-.5v-1h.5z" stroke="#3a414a" stroke-width=".05" fill="#3a414a"/><path d="M557.88 400l-14.26 4.63v-9.26z" stroke="#3a414a" fill="#3a414a"/><path d="M360 528a8 8 0 0 1 8-8h104a8 8 0 0 1 8 8v104a8 8 0 0 1-8 8H368a8 8 0 0 1-8-8z" stroke="#3a414a" fill="#fff"/><use xlink:href="#h" transform="matrix(1,0,0,1,365,525) translate(36.525 58.6)"/><path d="M360 708a8 8 0 0 1 8-8h104a8 8 0 0 1 8 8v104a8 8 0 0 1-8 8H368a8 8 0 0 1-8-8z" stroke="#3a414a" fill="#fff"/><use xlink:href="#i" transform="matrix(1,0,0,1,365,705) translate(29.5 58.6)"/><path d="M420 641v42.12" stroke="#3a414a" fill="none"/><path d="M420.5 641h-1v-.5h1z" stroke="#3a414a" stroke-width=".05" fill="#3a414a"/><path d="M420 697.88l-4.63-14.26h9.26z" stroke="#3a414a" fill="#3a414a"/><path d="M420 461v42.12" stroke="#3a414a" fill="none"/><path d="M420.5 461h-1v-.5h1z" stroke="#3a414a" stroke-width=".05" fill="#3a414a"/><path d="M420 517.88l-4.63-14.26h9.26z" stroke="#3a414a" fill="#3a414a"/><path d="M2380 348a8 8 0 0 1 8-8h104a8 8 0 0 1 8 8v104a8 8 0 0 1-8 8h-104a8 8 0 0 1-8-8z" stroke="#3a414a" fill="#fff"/><use xlink:href="#c" transform="matrix(1,0,0,1,2385,345) translate(22.5 58.6)"/><path d="M2301 400h62.12" stroke="#3a414a" fill="none"/><path d="M2301 400.5h-.5v-1h.5z" stroke="#3a414a" stroke-width=".05" fill="#3a414a"/><path d="M2377.88 400l-14.26 4.63v-9.26z" stroke="#3a414a" fill="#3a414a"/><path d="M1980 348a8 8 0 0 1 8-8h104a8 8 0 0 1 8 8v104a8 8 0 0 1-8 8h-104a8 8 0 0 1-8-8z" stroke="#3a414a" fill="#fff"/><use xlink:href="#j" transform="matrix(1,0,0,1,1985,345) translate(22.525 58.6)"/><path d="M2179 400h-62.12" stroke="#3a414a" fill="none"/><path d="M2179.5 400.5h-.5v-1h.5z" stroke="#3a414a" stroke-width=".05" fill="#3a414a"/><path d="M2102.12 400l14.26-4.63v9.26z" stroke="#3a414a" fill="#3a414a"/><path d="M2380 708a8 8 0 0 1 8-8h104a8 8 0 0 1 8 8v104a8 8 0 0 1-8 8h-104a8 8 0 0 1-8-8z" stroke="#3a414a" fill="#fff"/><use xlink:href="#h" transform="matrix(1,0,0,1,2385,705) translate(36.525 58.6)"/><path d="M2580 708a8 8 0 0 1 8-8h104a8 8 0 0 1 8 8v104a8 8 0 0 1-8 8h-104a8 8 0 0 1-8-8z" stroke="#3a414a" fill="#fff"/><use xlink:href="#k" transform="matrix(1,0,0,1,2585,705) translate(34.55 58.6)"/><path d="M2501 760h62.12" stroke="#3a414a" fill="none"/><path d="M2501 760.5h-.5v-1h.5z" stroke="#3a414a" stroke-width=".05" fill="#3a414a"/><path d="M2577.88 760l-14.26 4.63v-9.26z" stroke="#3a414a" fill="#3a414a"/><path d="M1480 788a8 8 0 0 1 8-8h104a8 8 0 0 1 8 8v104a8 8 0 0 1-8 8h-104a8 8 0 0 1-8-8z" stroke="#3a414a" fill="#fff"/><use xlink:href="#g" transform="matrix(1,0,0,1,1485,785) translate(36.55 58.6)"/><path d="M1408.67 840h54.45" stroke="#3a414a" fill="none"/><path d="M1408.68 840.5h-.5v-1h.5z" stroke="#3a414a" stroke-width=".05" fill="#3a414a"/><path d="M1477.88 840l-14.26 4.63v-9.26z" stroke="#3a414a" fill="#3a414a"/><path d="M1287.67 948a8 8 0 0 1 8-8h104a8 8 0 0 1 8 8v104a8 8 0 0 1-8 8h-104a8 8 0 0 1-8-8z" stroke="#3a414a" fill="#fff"/><use xlink:href="#j" transform="matrix(1,0,0,1,1292.67193208784,945) translate(22.525 58.6)"/><path d="M1347.67 901v22.12" stroke="#3a414a" fill="none"/><path d="M1348.17 901h-1v-.5h1z" stroke="#3a414a" stroke-width=".05" fill="#3a414a"/><path d="M1347.67 937.88l-4.63-14.26h9.27z" stroke="#3a414a" fill="#3a414a"/><path d="M1480 948a8 8 0 0 1 8-8h104a8 8 0 0 1 8 8v104a8 8 0 0 1-8 8h-104a8 8 0 0 1-8-8z" stroke="#3a414a" fill="#fff"/><use xlink:href="#l" transform="matrix(1,0,0,1,1485,945) translate(35.5 58.6)"/><path d="M1408.67 1000h54.45" stroke="#3a414a" fill="none"/><path d="M1408.68 1000.5h-.5v-1h.5z" stroke="#3a414a" stroke-width=".05" fill="#3a414a"/><path d="M1477.88 1000l-14.26 4.63v-9.26z" stroke="#3a414a" fill="#3a414a"/><path d="M900 948a8 8 0 0 1 8-8h104a8 8 0 0 1 8 8v104a8 8 0 0 1-8 8H908a8 8 0 0 1-8-8z" stroke="#3a414a" fill="#fff"/><use xlink:href="#h" transform="matrix(1,0,0,1,905,945) translate(36.525 58.6)"/><path d="M900 788a8 8 0 0 1 8-8h104a8 8 0 0 1 8 8v104a8 8 0 0 1-8 8H908a8 8 0 0 1-8-8z" stroke="#3a414a" fill="#fff"/><use xlink:href="#k" transform="matrix(1,0,0,1,905,785) translate(34.55 58.6)"/><path d="M960 939v-22.12" stroke="#3a414a" fill="none"/><path d="M960.5 939.5h-1v-.5h1z" stroke="#3a414a" stroke-width=".05" fill="#3a414a"/><path d="M960 902.12l4.63 14.26h-9.26z" stroke="#3a414a" fill="#3a414a"/><path d="M481 580h5.05m5.05 0h10.1m5.06 0h10.1m5.05 0h10.1m5.06 0h10.1m5.06 0h10.1m5.05 0h10.1m5.06 0h10.1m5.05 0h10.1m5.05 0h10.1m5.06 0h10.1m5.04 0h10.1m5.05 0h10.1m5.05 0H678l1.88.15 1.83.44 1.75.7.53.34m4.38 4.38l.33.53.7 1.74.45 1.82.15 1.88v5.08m0 5.07v10.16m0 5.1v10.14m0 5.08v10.15m0 5.08V658m0 5.08v10.15m0 5.08v10.16m0 5.08v10.15m0 5.07v10.15m0 5.08v10.15m0 5.08v10.15m0 5.08v10.15m0 5.1v10.15m0 5.07v10.16m0 5.07v10.16m0 5.1v10.14m0 5.08v10.15m0 5.08V856m0 5.08v10.15m0 5.08v10.16m0 5.08v10.15m0 5.07v10.15m0 5.08v10.15m0 5.08v10.15m0 5.08v10.15m0 5.1v10.15m0 5.07V988l.15 1.88.44 1.83.7 1.75.34.53m4.38 4.38l.53.33 1.74.7 1.82.45 1.88.15h5.03m5.03 0h10.06m5.03 0h10.07m5.03 0h10.06m5.04 0h10.06m5.03 0h10.07m5.03 0h10.06m5.02 0h10.06m5.03 0h10.07m5.04 0h10.07m5.03 0h10.06m5.03 0h10.05m5.04 0h5.02" stroke="#3a414a" fill="none"/><path d="M481 580.5h-.5v-1h.5z" stroke="#3a414a" stroke-width=".05" fill="#3a414a"/><path d="M897.88 1000l-14.26 4.63v-9.26z" stroke="#3a414a" fill="#3a414a"/><path d="M481 580h5m4.98 0h9.97m5 0h9.97m5 0h9.97m4.98 0h9.97m5 0h9.97m5 0h9.96m5 0h9.97m5 0h9.97m5 0h9.96m5 0h9.97m5 0h9.96m5 0h9.98m5 0h9.96m5 0h9.97m5 0h9.98m5 0h9.96m5 0h9.97m5 0h9.98m4.98 0h9.98m5 0h9.97m5 0h9.97m5 0h9.97m5 0h9.97m5 0h9.97m5 0h9.97m5 0h9.96m5 0h9.97m5 0h9.96m5 0H920m5 0h9.97m5 0h9.96m5 0h9.97m5 0h9.96m5 0h9.97m5 0h9.96m4.98 0h9.98m5 0h9.97m5 0h9.96m4.98 0h9.98m5 0h9.96m5 0h9.97m4.98 0h9.98m5 0h9.96m5 0h9.97m4.98 0h9.97m5 0h9.97m5 0h9.97m4.97 0h9.98m5 0h9.97m5 0h9.96m5 0h9.97m5 0h9.97m4.98 0h9.98m5 0h9.97m5 0h9.96m5 0h9.98m5 0h9.97m4.98 0h9.98m5 0h9.98m5 0h9.96m5 0h9.97m5 0h9.97m5 0h9.97m5 0h9.97m5 0h9.97m5 0h9.97m5 0h9.96m5 0h9.97m5 0h9.97m4.98 0h9.98m5 0h9.97m5 0h9.96m5 0h9.97m5 0h9.97m4.98 0h9.98m5 0h9.97m5 0h9.96m5 0h9.97m5 0h9.97m4.98 0h9.98m5 0h9.97m5 0h9.96m4.98 0h9.98m5 0h9.96m5 0h9.97m4.98 0h9.98m5 0h9.96m5 0h4.98l1.88.15 1.83.44 1.75.7.53.34m4.38 4.38l.33.53.7 1.74.45 1.82.15 1.88v5.2m0 5.2v10.4m0 5.2v10.4m0 5.2V644m0 5.2v10.4m0 5.2v10.4m0 5.2v10.4m0 5.2v10.4m0 5.2V722m0 5.2v10.4m0 5.2v5.2l.15 1.88.44 1.83.7 1.75.34.53m4.38 4.38l.53.33 1.74.7 1.82.45 1.88.15h5m5.02 0h10.02m5 0h10.03m5 0h10.03m5 0h10.03m5 0h10.03m5.02 0h10.02m5 0h10.03m5 0h10.03m5 0h10.03m5 0h10.02m5 0h10.03m5 0h10.03m5 0h10.03m5.02 0h10.02m5 0h10.03m5.02 0h10m5.02 0h10.02m5 0h10.03m5 0h10.03m5 0h10.03m5 0h10.03m5 0h10.03m5 0h10.02m5 0h10.03m5 0h10.03m5.02 0h10.02m5 0h10.03m5 0h10.03m5 0h10.03m5.02 0h10.02m5 0h10.03m5 0H2308m5 0h10.03m5 0h10.03m5 0h10.03m5 0h5.02" stroke="#3a414a" fill="none"/><path d="M481 580.5h-.5v-1h.5z" stroke="#3a414a" stroke-width=".05" fill="#3a414a"/><path d="M2377.88 760l-14.26 4.63v-9.26z" stroke="#3a414a" fill="#3a414a"/><path d="M1290 1128a8 8 0 0 1 8-8h104a8 8 0 0 1 8 8v104a8 8 0 0 1-8 8h-104a8 8 0 0 1-8-8z" stroke="#3a414a" fill="#fff"/><use xlink:href="#m" transform="matrix(1,0,0,1,1295,1125) translate(31.1 47.8)"/><use xlink:href="#n" transform="matrix(1,0,0,1,1295,1125) translate(25.049999999999997 69.4)"/><path d="M2180 528a8 8 0 0 1 8-8h104a8 8 0 0 1 8 8v104a8 8 0 0 1-8 8h-104a8 8 0 0 1-8-8z" stroke="#3a414a" fill="#fff"/><use xlink:href="#m" transform="matrix(1,0,0,1,2185,525) translate(31.1 47.8)"/><use xlink:href="#n" transform="matrix(1,0,0,1,2185,525) translate(25.049999999999997 69.4)"/><path d="M2380 528a8 8 0 0 1 8-8h104a8 8 0 0 1 8 8v104a8 8 0 0 1-8 8h-104a8 8 0 0 1-8-8z" stroke="#3a414a" fill="#fff"/><use xlink:href="#o" transform="matrix(1,0,0,1,2385,525) translate(28.049999999999997 58.6)"/><path d="M2301 580h62.12" stroke="#3a414a" fill="none"/><path d="M2301 580.5h-.5v-1h.5z" stroke="#3a414a" stroke-width=".05" fill="#3a414a"/><path d="M2377.88 580l-14.26 4.63v-9.26z" stroke="#3a414a" fill="#3a414a"/><path d="M2580 528a8 8 0 0 1 8-8h104a8 8 0 0 1 8 8v104a8 8 0 0 1-8 8h-104a8 8 0 0 1-8-8z" stroke="#3a414a" fill="#fff"/><use xlink:href="#p" transform="matrix(1,0,0,1,2585,525) translate(29.05 58.6)"/><path d="M2501 580h62.12" stroke="#3a414a" fill="none"/><path d="M2501 580.5h-.5v-1h.5z" stroke="#3a414a" stroke-width=".05" fill="#3a414a"/><path d="M2577.88 580l-14.26 4.63v-9.26z" stroke="#3a414a" fill="#3a414a"/><path d="M2440 699v-42.12" stroke="#3a414a" fill="none"/><path d="M2440.5 699.5h-1v-.5h1z" stroke="#3a414a" stroke-width=".05" fill="#3a414a"/><path d="M2440 642.12l4.64 14.26h-9.28z" stroke="#3a414a" fill="#3a414a"/><path d="M1350 1119v-5.67m0-5.66V1102l.15-1.88.44-1.83.7-1.75.34-.53m4.38-4.38l.53-.33 1.74-.7 1.82-.45 1.88-.15h5m5 0h10m5.02 0h10m5 0h10m5.02 0h10m5 0h10m5.02 0h10m5 0h10m5.02 0h10m5 0h10m5.02 0h10m5 0h10m5 0h10.02m5 0h10m5 0h10.02m5 0h10m5 0h10.02m5 0h10m5 0h10.02m5 0h10m5 0h10.02m5 0h10m5 0h10.02m5 0h10m5 0h10.02m5 0h10m5 0h10.02m5 0h10m5 0h10.02m5 0h10m5 0h10.02m5 0h10m5 0h10.02m5 0h10m5 0h10.02m5 0h10m5 0h10.02m5 0h10m5 0h10.02m5 0h10m5 0h10m5.02 0h10m5 0h10m5.02 0h10m5 0h10m5.02 0h10m5 0h10m5.02 0h10m5 0h10m5.02 0h10m5 0h10m5.02 0h5l1.88-.15 1.83-.44 1.75-.7.53-.34m4.38-4.38l.33-.53.7-1.74.45-1.82.15-1.88v-5.06m0-5.07v-10.12m0-5.06v-10.14m0-5.06v-10.13m0-5.06v-10.1m0-5.08V997m0-5.06V981.8m0-5.05v-10.13m0-5.06v-10.12m0-5.07v-10.12m0-5.06v-10.14m0-5.06v-10.13m0-5.06v-10.1m0-5.08V875.5m0-5.06V860.3m0-5.05v-10.13m0-5.06v-10.12m0-5.07v-10.12m0-5.06v-10.14m0-5.06v-10.13m0-5.06v-10.1m0-5.08V754m0-5.06V738.8m0-5.05v-10.13m0-5.06v-10.12m0-5.07v-10.12m0-5.06v-10.14m0-5.06v-10.13m0-5.06v-10.1m0-5.08V632.5m0-5.06V617.3m0-5.05v-10.13m0-5.06V592l.15-1.88.44-1.83.7-1.75.34-.53m4.38-4.38l.53-.33 1.74-.7 1.82-.45 1.88-.15h3.87m3.87 0h3.88" stroke="#3a414a" fill="none"/><path d="M1350.5 1119.5h-1v-.5h1z" stroke="#3a414a" stroke-width=".05" fill="#3a414a"/><path d="M2177.88 580l-14.26 4.63v-9.26z" stroke="#3a414a" fill="#3a414a"/><path d="M1100 1128a8 8 0 0 1 8-8h104a8 8 0 0 1 8 8v104a8 8 0 0 1-8 8h-104a8 8 0 0 1-8-8z" stroke="#3a414a" fill="#fff"/><use xlink:href="#q" transform="matrix(1,0,0,1,1105,1125) translate(19.525 58.6)"/><path d="M1289 1182.34h-52.12" stroke="#3a414a" fill="none"/><path d="M1289.5 1182.84h-.5v-1h.5z" stroke="#3a414a" stroke-width=".05" fill="#3a414a"/><path d="M1222.12 1182.34l14.26-4.63v9.28z" stroke="#3a414a" fill="#3a414a"/><path d="M1480 1128a8 8 0 0 1 8-8h104a8 8 0 0 1 8 8v104a8 8 0 0 1-8 8h-104a8 8 0 0 1-8-8z" stroke="#3a414a" fill="#fff"/><use xlink:href="#i" transform="matrix(1,0,0,1,1485,1125) translate(29.5 58.6)"/><path d="M1411 1180h52.12" stroke="#3a414a" fill="none"/><path d="M1411 1180.5h-.5v-1h.5z" stroke="#3a414a" stroke-width=".05" fill="#3a414a"/><path d="M1477.88 1180l-14.26 4.63v-9.27z" stroke="#3a414a" fill="#3a414a"/><path d="M1290 1348a8 8 0 0 1 8-8h104a8 8 0 0 1 8 8v104a8 8 0 0 1-8 8h-104a8 8 0 0 1-8-8z" stroke="#3a414a" fill="#fff"/><use xlink:href="#r" transform="matrix(1,0,0,1,1295,1345) translate(8.399999999999999 58.6)"/><path d="M1289 1400h-117a12 12 0 0 1-12-12v-131.12" stroke="#3a414a" fill="none"/><path d="M1289.5 1400.5h-.5v-1h.5z" stroke="#3a414a" stroke-width=".05" fill="#3a414a"/><path d="M1160 1242.12l4.63 14.26h-9.27z" stroke="#3a414a" fill="#3a414a"/><path d="M1350 1241v82.12" stroke="#3a414a" fill="none"/><path d="M1350.5 1241h-1v-.5h1z" stroke="#3a414a" stroke-width=".05" fill="#3a414a"/><path d="M1350 1337.88l-4.63-14.26h9.27z" stroke="#3a414a" fill="#3a414a"/><path d="M1980 568a8 8 0 0 1 8-8h104a8 8 0 0 1 8 8v104a8 8 0 0 1-8 8h-104a8 8 0 0 1-8-8z" stroke="#3a414a" fill="#fff"/><use xlink:href="#r" transform="matrix(1,0,0,1,1985,565) translate(8.399999999999999 58.6)"/><path d="M1411 1400h4.94m4.93 0h9.88m4.94 0h9.86m4.94 0h9.88m4.93 0h9.9m4.92 0h9.88m4.94 0h9.87m4.95 0h9.88m4.93 0h9.88m4.93 0h9.88m4.94 0h9.86m4.94 0h9.88m4.93 0h9.9m4.92 0h9.88m4.94 0h9.87m4.95 0h9.88m4.93 0h4.94l1.88-.15 1.83-.44 1.75-.7.53-.34m4.38-4.38l.33-.53.7-1.74.45-1.82.15-1.88v-5.04m0-5.04v-10.08m0-5.04v-10.08m0-5.04v-10.08m0-5.04v-10.08m0-5.04v-10.08m0-5.04v-10.08m0-5.04v-10.08m0-5.04V1262m0-5.04v-10.08m0-5.04v-10.08m0-5.04v-10.08m0-5.04v-10.08m0-5.04v-10.08m0-5.04v-10.08m0-5.04v-10.08m0-5.04v-10.08m0-5.04v-10.08m0-5.04v-10.08m0-5.04v-10.08m0-5.04v-10.08m0-5.04v-10.08m0-5.04v-10.08m0-5.04v-10.08m0-5.04v-10.08m0-5.04v-10.08m0-5.04v-10.08m0-5.04v-10.08m0-5.04V959.6m0-5.04v-10.08m0-5.04v-10.08m0-5.04v-10.08m0-5.04v-10.08m0-5.04V884m0-5.04v-10.08m0-5.04v-10.08m0-5.04v-10.08m0-5.04v-10.08m0-5.04V808.4m0-5.04v-10.08m0-5.04v-10.08m0-5.04v-10.08m0-5.04v-10.08m0-5.04V732.8m0-5.04v-10.08m0-5.04v-10.08m0-5.04v-10.08m0-5.04v-10.08m0-5.04V657.2m0-5.04v-10.08m0-5.04V632l.15-1.88.44-1.83.7-1.75.34-.53m4.38-4.38l.53-.33 1.74-.7 1.82-.45 1.88-.15h5.1m5.12 0h10.2m5.12 0h10.2m5.12 0h10.2m5.12 0h10.2m5.12 0h10.22m5.1 0h10.22m5.1 0h10.22m5.1 0h10.22m5.1 0H1815m5.1 0h10.23m5.1 0h10.22m5.1 0h10.22m5.1 0h10.22m5.1 0h10.2m5.12 0h10.22m5.1 0h10.22m5.1 0h10.22m5.1 0h10.22m5.1 0h5.12" stroke="#3a414a" fill="none"/><path d="M1411 1400.5h-.5v-1h.5z" stroke="#3a414a" stroke-width=".05" fill="#3a414a"/><path d="M1977.88 620l-14.26 4.63v-9.26z" stroke="#3a414a" fill="#3a414a"/><path d="M2240 519v-27.5a12 12 0 0 0-12-12h-176a12 12 0 0 0-12 12v51.62" stroke="#3a414a" fill="none"/><path d="M2240.5 519.5h-1v-.5h1z" stroke="#3a414a" stroke-width=".05" fill="#3a414a"/><path d="M2040 557.88l-4.63-14.26h9.27z" stroke="#3a414a" fill="#3a414a"/><path d="M2040 681v27.5a12 12 0 0 0 12 12h275.5a12 12 0 0 0 12-12V622a12 12 0 0 1 12-12h11.62" stroke="#3a414a" fill="none"/><path d="M2040.5 681h-1v-.5h1z" stroke="#3a414a" stroke-width=".05" fill="#3a414a"/><path d="M2377.88 610l-14.26 4.63v-9.26z" stroke="#3a414a" fill="#3a414a"/><defs><path fill="#3a414a" d="M127-220V0H93v-220H8v-28h204v28h-85" id="s"/><path fill="#3a414a" d="M141-36C126-15 110 5 73 4 37 3 15-17 15-53c-1-64 63-63 125-63 3-35-9-54-41-54-24 1-41 7-42 31l-33-3c5-37 33-52 76-52 45 0 72 20 72 64v82c-1 20 7 32 28 27v20c-31 9-61-2-59-35zM48-53c0 20 12 33 32 33 41-3 63-29 60-74-43 2-92-5-92 41" id="t"/><path fill="#3a414a" d="M135-143c-3-34-86-38-87 0 15 53 115 12 119 90S17 21 10-45l28-5c4 36 97 45 98 0-10-56-113-15-118-90-4-57 82-63 122-42 12 7 21 19 24 35" id="u"/><path fill="#3a414a" d="M143 0L79-87 56-68V0H24v-261h32v163l83-92h37l-77 82L181 0h-38" id="v"/><g id="a"><use transform="matrix(0.05,0,0,0.05,0,0)" xlink:href="#s"/><use transform="matrix(0.05,0,0,0.05,8.950000000000001,0)" xlink:href="#t"/><use transform="matrix(0.05,0,0,0.05,18.950000000000003,0)" xlink:href="#u"/><use transform="matrix(0.05,0,0,0.05,27.950000000000003,0)" xlink:href="#v"/></g><path fill="#3a414a" d="M85-194c31 0 48 13 60 33l-1-100h32l1 261h-30c-2-10 0-23-3-31C134-8 116 4 85 4 32 4 16-35 15-94c0-66 23-100 70-100zm9 24c-40 0-46 34-46 75 0 40 6 74 45 74 42 0 51-32 51-76 0-42-9-74-50-73" id="w"/><path fill="#3a414a" d="M100-194c62-1 85 37 85 99 1 63-27 99-86 99S16-35 15-95c0-66 28-99 85-99zM99-20c44 1 53-31 53-75 0-43-8-75-51-75s-53 32-53 75 10 74 51 75" id="x"/><path fill="#3a414a" d="M210-169c-67 3-38 105-44 169h-31v-121c0-29-5-50-35-48C34-165 62-65 56 0H25l-1-190h30c1 10-1 24 2 32 10-44 99-50 107 0 11-21 27-35 58-36 85-2 47 119 55 194h-31v-121c0-29-5-49-35-48" id="y"/><path fill="#3a414a" d="M24-231v-30h32v30H24zM24 0v-190h32V0H24" id="z"/><path fill="#3a414a" d="M117-194c89-4 53 116 60 194h-32v-121c0-31-8-49-39-48C34-167 62-67 57 0H25l-1-190h30c1 10-1 24 2 32 11-22 29-35 61-36" id="A"/><g id="b"><use transform="matrix(0.05,0,0,0.05,0,0)" xlink:href="#w"/><use transform="matrix(0.05,0,0,0.05,10,0)" xlink:href="#x"/><use transform="matrix(0.05,0,0,0.05,20,0)" xlink:href="#y"/><use transform="matrix(0.05,0,0,0.05,34.95,0)" xlink:href="#t"/><use transform="matrix(0.05,0,0,0.05,44.95,0)" xlink:href="#z"/><use transform="matrix(0.05,0,0,0.05,48.900000000000006,0)" xlink:href="#A"/></g><path fill="#3a414a" d="M205 0l-28-72H64L36 0H1l101-248h38L239 0h-34zm-38-99l-47-123c-12 45-31 82-46 123h93" id="B"/><path fill="#3a414a" d="M96-169c-40 0-48 33-48 73s9 75 48 75c24 0 41-14 43-38l32 2c-6 37-31 61-74 61-59 0-76-41-82-99-10-93 101-131 147-64 4 7 5 14 7 22l-32 3c-4-21-16-35-41-35" id="C"/><path fill="#3a414a" d="M84 4C-5 8 30-112 23-190h32v120c0 31 7 50 39 49 72-2 45-101 50-169h31l1 190h-30c-1-10 1-25-2-33-11 22-28 36-60 37" id="D"/><path fill="#3a414a" d="M59-47c-2 24 18 29 38 22v24C64 9 27 4 27-40v-127H5v-23h24l9-43h21v43h35v23H59v120" id="E"/><g id="c"><use transform="matrix(0.05,0,0,0.05,0,0)" xlink:href="#B"/><use transform="matrix(0.05,0,0,0.05,12,0)" xlink:href="#C"/><use transform="matrix(0.05,0,0,0.05,21,0)" xlink:href="#C"/><use transform="matrix(0.05,0,0,0.05,30,0)" xlink:href="#x"/><use transform="matrix(0.05,0,0,0.05,40,0)" xlink:href="#D"/><use transform="matrix(0.05,0,0,0.05,50,0)" xlink:href="#A"/><use transform="matrix(0.05,0,0,0.05,60,0)" xlink:href="#E"/></g><path fill="#3a414a" d="M24 0v-261h32V0H24" id="F"/><path fill="#3a414a" d="M179-190L93 31C79 59 56 82 12 73V49c39 6 53-20 64-50L1-190h34L92-34l54-156h33" id="G"/><g id="d"><use transform="matrix(0.05,0,0,0.05,0,0)" xlink:href="#B"/><use transform="matrix(0.05,0,0,0.05,12,0)" xlink:href="#A"/><use transform="matrix(0.05,0,0,0.05,22,0)" xlink:href="#t"/><use transform="matrix(0.05,0,0,0.05,32,0)" xlink:href="#F"/><use transform="matrix(0.05,0,0,0.05,35.95,0)" xlink:href="#G"/><use transform="matrix(0.05,0,0,0.05,44.95,0)" xlink:href="#E"/><use transform="matrix(0.05,0,0,0.05,49.95,0)" xlink:href="#z"/><use transform="matrix(0.05,0,0,0.05,53.900000000000006,0)" xlink:href="#C"/><use transform="matrix(0.05,0,0,0.05,62.900000000000006,0)" xlink:href="#u"/></g><path fill="#3a414a" d="M106-169C34-169 62-67 57 0H25v-261h32l-1 103c12-21 28-36 61-36 89 0 53 116 60 194h-32v-121c2-32-8-49-39-48" id="H"/><g id="e"><use transform="matrix(0.05,0,0,0.05,0,0)" xlink:href="#B"/><use transform="matrix(0.05,0,0,0.05,12,0)" xlink:href="#D"/><use transform="matrix(0.05,0,0,0.05,22,0)" xlink:href="#E"/><use transform="matrix(0.05,0,0,0.05,27,0)" xlink:href="#H"/></g><path fill="#3a414a" d="M160-131c35 5 61 23 61 61C221 17 115-2 30 0v-248c76 3 177-17 177 60 0 33-19 50-47 57zm-97-11c50-1 110 9 110-42 0-47-63-36-110-37v79zm0 115c55-2 124 14 124-45 0-56-70-42-124-44v89" id="I"/><path fill="#3a414a" d="M177-190C167-65 218 103 67 71c-23-6-38-20-44-43l32-5c15 47 100 32 89-28v-30C133-14 115 1 83 1 29 1 15-40 15-95c0-56 16-97 71-98 29-1 48 16 59 35 1-10 0-23 2-32h30zM94-22c36 0 50-32 50-73 0-42-14-75-50-75-39 0-46 34-46 75s6 73 46 73" id="J"/><g id="f"><use transform="matrix(0.05,0,0,0.05,0,0)" xlink:href="#I"/><use transform="matrix(0.05,0,0,0.05,12,0)" xlink:href="#z"/><use transform="matrix(0.05,0,0,0.05,15.949999999999998,0)" xlink:href="#F"/><use transform="matrix(0.05,0,0,0.05,19.9,0)" xlink:href="#F"/><use transform="matrix(0.05,0,0,0.05,23.849999999999998,0)" xlink:href="#z"/><use transform="matrix(0.05,0,0,0.05,27.799999999999997,0)" xlink:href="#A"/><use transform="matrix(0.05,0,0,0.05,37.8,0)" xlink:href="#J"/></g><path fill="#3a414a" d="M233-177c-1 41-23 64-60 70L243 0h-38l-65-103H63V0H30v-248c88 3 205-21 203 71zM63-129c60-2 137 13 137-47 0-61-80-42-137-45v92" id="K"/><path fill="#3a414a" d="M100-194c63 0 86 42 84 106H49c0 40 14 67 53 68 26 1 43-12 49-29l28 8c-11 28-37 45-77 45C44 4 14-33 15-96c1-61 26-98 85-98zm52 81c6-60-76-77-97-28-3 7-6 17-6 28h103" id="L"/><g id="g"><use transform="matrix(0.05,0,0,0.05,0,0)" xlink:href="#K"/><use transform="matrix(0.05,0,0,0.05,12.950000000000001,0)" xlink:href="#x"/><use transform="matrix(0.05,0,0,0.05,22.950000000000003,0)" xlink:href="#F"/><use transform="matrix(0.05,0,0,0.05,26.900000000000002,0)" xlink:href="#L"/></g><g id="h"><use transform="matrix(0.05,0,0,0.05,0,0)" xlink:href="#s"/><use transform="matrix(0.05,0,0,0.05,8.950000000000001,0)" xlink:href="#t"/><use transform="matrix(0.05,0,0,0.05,18.950000000000003,0)" xlink:href="#u"/><use transform="matrix(0.05,0,0,0.05,27.950000000000003,0)" xlink:href="#v"/></g><path fill="#3a414a" d="M185-189c-5-48-123-54-124 2 14 75 158 14 163 119 3 78-121 87-175 55-17-10-28-26-33-46l33-7c5 56 141 63 141-1 0-78-155-14-162-118-5-82 145-84 179-34 5 7 8 16 11 25" id="M"/><g id="i"><use transform="matrix(0.05,0,0,0.05,0,0)" xlink:href="#M"/><use transform="matrix(0.05,0,0,0.05,12,0)" xlink:href="#E"/><use transform="matrix(0.05,0,0,0.05,17,0)" xlink:href="#t"/><use transform="matrix(0.05,0,0,0.05,27,0)" xlink:href="#E"/><use transform="matrix(0.05,0,0,0.05,32,0)" xlink:href="#D"/><use transform="matrix(0.05,0,0,0.05,42,0)" xlink:href="#u"/></g><g id="j"><use transform="matrix(0.05,0,0,0.05,0,0)" xlink:href="#I"/><use transform="matrix(0.05,0,0,0.05,12,0)" xlink:href="#t"/><use transform="matrix(0.05,0,0,0.05,22,0)" xlink:href="#F"/><use transform="matrix(0.05,0,0,0.05,25.950000000000003,0)" xlink:href="#t"/><use transform="matrix(0.05,0,0,0.05,35.95,0)" xlink:href="#A"/><use transform="matrix(0.05,0,0,0.05,45.95,0)" xlink:href="#C"/><use transform="matrix(0.05,0,0,0.05,54.95,0)" xlink:href="#L"/></g><path fill="#3a414a" d="M30-248c87 1 191-15 191 75 0 78-77 80-158 76V0H30v-248zm33 125c57 0 124 11 124-50 0-59-68-47-124-48v98" id="N"/><path fill="#3a414a" d="M114-163C36-179 61-72 57 0H25l-1-190h30c1 12-1 29 2 39 6-27 23-49 58-41v29" id="O"/><g id="k"><use transform="matrix(0.05,0,0,0.05,0,0)" xlink:href="#N"/><use transform="matrix(0.05,0,0,0.05,12,0)" xlink:href="#O"/><use transform="matrix(0.05,0,0,0.05,17.95,0)" xlink:href="#z"/><use transform="matrix(0.05,0,0,0.05,21.9,0)" xlink:href="#C"/><use transform="matrix(0.05,0,0,0.05,30.899999999999995,0)" xlink:href="#L"/></g><path fill="#3a414a" d="M30 0v-248h33v221h125V0H30" id="P"/><g id="l"><use transform="matrix(0.05,0,0,0.05,0,0)" xlink:href="#P"/><use transform="matrix(0.05,0,0,0.05,10,0)" xlink:href="#x"/><use transform="matrix(0.05,0,0,0.05,20,0)" xlink:href="#J"/><use transform="matrix(0.05,0,0,0.05,30,0)" xlink:href="#u"/></g><g id="m"><use transform="matrix(0.05,0,0,0.05,0,0)" xlink:href="#I"/><use transform="matrix(0.05,0,0,0.05,12,0)" xlink:href="#z"/><use transform="matrix(0.05,0,0,0.05,15.949999999999998,0)" xlink:href="#F"/><use transform="matrix(0.05,0,0,0.05,19.9,0)" xlink:href="#F"/><use transform="matrix(0.05,0,0,0.05,23.849999999999998,0)" xlink:href="#z"/><use transform="matrix(0.05,0,0,0.05,27.799999999999997,0)" xlink:href="#A"/><use transform="matrix(0.05,0,0,0.05,37.8,0)" xlink:href="#J"/></g><path fill="#3a414a" d="M108 0H70L1-190h34L89-25l56-165h34" id="Q"/><g id="n"><use transform="matrix(0.05,0,0,0.05,0,0)" xlink:href="#M"/><use transform="matrix(0.05,0,0,0.05,12,0)" xlink:href="#L"/><use transform="matrix(0.05,0,0,0.05,22,0)" xlink:href="#O"/><use transform="matrix(0.05,0,0,0.05,27.950000000000003,0)" xlink:href="#Q"/><use transform="matrix(0.05,0,0,0.05,36.95,0)" xlink:href="#z"/><use transform="matrix(0.05,0,0,0.05,40.900000000000006,0)" xlink:href="#C"/><use transform="matrix(0.05,0,0,0.05,49.900000000000006,0)" xlink:href="#L"/></g><path fill="#3a414a" d="M115-194c55 1 70 41 70 98S169 2 115 4C84 4 66-9 55-30l1 105H24l-1-265h31l2 30c10-21 28-34 59-34zm-8 174c40 0 45-34 45-75s-6-73-45-74c-42 0-51 32-51 76 0 43 10 73 51 73" id="R"/><g id="o"><use transform="matrix(0.05,0,0,0.05,0,0)" xlink:href="#K"/><use transform="matrix(0.05,0,0,0.05,12.950000000000001,0)" xlink:href="#L"/><use transform="matrix(0.05,0,0,0.05,22.950000000000003,0)" xlink:href="#R"/><use transform="matrix(0.05,0,0,0.05,32.95,0)" xlink:href="#x"/><use transform="matrix(0.05,0,0,0.05,42.95,0)" xlink:href="#O"/><use transform="matrix(0.05,0,0,0.05,48.900000000000006,0)" xlink:href="#E"/></g><g id="p"><use transform="matrix(0.05,0,0,0.05,0,0)" xlink:href="#N"/><use transform="matrix(0.05,0,0,0.05,12,0)" xlink:href="#L"/><use transform="matrix(0.05,0,0,0.05,22,0)" xlink:href="#O"/><use transform="matrix(0.05,0,0,0.05,27.950000000000003,0)" xlink:href="#z"/><use transform="matrix(0.05,0,0,0.05,31.899999999999995,0)" xlink:href="#x"/><use transform="matrix(0.05,0,0,0.05,41.9,0)" xlink:href="#w"/></g><g id="q"><use transform="matrix(0.05,0,0,0.05,0,0)" xlink:href="#N"/><use transform="matrix(0.05,0,0,0.05,12,0)" xlink:href="#t"/><use transform="matrix(0.05,0,0,0.05,22,0)" xlink:href="#G"/><use transform="matrix(0.05,0,0,0.05,31,0)" xlink:href="#y"/><use transform="matrix(0.05,0,0,0.05,45.95,0)" xlink:href="#L"/><use transform="matrix(0.05,0,0,0.05,55.95,0)" xlink:href="#A"/><use transform="matrix(0.05,0,0,0.05,65.95,0)" xlink:href="#E"/></g><g id="r"><use transform="matrix(0.05,0,0,0.05,0,0)" xlink:href="#s"/><use transform="matrix(0.05,0,0,0.05,10.3,0)" xlink:href="#O"/><use transform="matrix(0.05,0,0,0.05,16.25,0)" xlink:href="#t"/><use transform="matrix(0.05,0,0,0.05,26.25,0)" xlink:href="#A"/><use transform="matrix(0.05,0,0,0.05,36.25,0)" xlink:href="#u"/><use transform="matrix(0.05,0,0,0.05,45.25,0)" xlink:href="#t"/><use transform="matrix(0.05,0,0,0.05,55.25,0)" xlink:href="#C"/><use transform="matrix(0.05,0,0,0.05,64.25,0)" xlink:href="#E"/><use transform="matrix(0.05,0,0,0.05,69.25,0)" xlink:href="#z"/><use transform="matrix(0.05,0,0,0.05,73.2,0)" xlink:href="#x"/><use transform="matrix(0.05,0,0,0.05,83.2,0)" xlink:href="#A"/></g></defs></g></svg>